<svg xmlns="http://www.w3.org/2000/svg" id="css3" viewBox="0 0 65.347 72.031">
  <g id="css3" transform="translate(2.73 7.5)">
    <path id="Path_12" data-name="Path 12" d="M66.886,5H7l5.284,59.886,24.659,7.045L61.6,64.886,66.886,5Z" transform="translate(-7 -10)" fill="none" stroke="#fff" stroke-width="5"/>
    <path id="Path_14" data-name="Path 14" d="M40.028,13H24v7.045h8.631L32.1,27.091H24v7.045h7.75l-.528,7.926L24,44.528v7.4l13.915-4.58,1.233-20.256h0Z" transform="translate(5.943 -4.115)"/>
    <path id="Path_15" data-name="Path 15" d="M31,13v7.045H15.328L14.8,13ZM22.9,27.091l.352,7.045H31V27.091Zm.7,10.568H16.561l.528,9.687L31,51.926v-7.4l-7.222-2.466Z" transform="translate(-1.061 -4.115)"/>
  </g>
</svg>
