<svg xmlns="http://www.w3.org/2000/svg" id="html5" viewBox="0 0 59.945 66.808">
  <path id="icons8-html-5-500" d="M5.219,4l.261,3.041,4.865,54.993.174,1.911,1.824.521,22.067,6.168.7.174.782-.174,22.067-6.081,1.825-.521.174-1.911L64.9,7.041l.261-2.954H62.123L8.259,4ZM11.3,9.56l47.782.087L54.565,59.688,35.191,65.075l-19.46-5.386Zm6.69,8.34,1.825,20.764h23.8l-.782,8.948L35.191,49.7H35.1l-7.645-2.085-.435-5.734h-6.95l.956,11.033L35.1,56.821h.087l14.074-3.909L51.177,31.8H26.069l-.608-7.037H51.785l.608-6.863Z" transform="translate(-5.219 -4)" fill="#fff"/>
</svg>
