<svg xmlns="http://www.w3.org/2000/svg" id="javascript" viewBox="0 0 65.347 72.031">
  <g id="_009-js" data-name="009-js" transform="translate(210.01 149.41)">
    <path id="Path_107" data-name="Path 107" d="M259.639,242.125a4.356,4.356,0,0,1,0-8.711,4.3,4.3,0,0,1,3.169,1.381,2.9,2.9,0,1,0,4.219-3.986,10.168,10.168,0,1,0-7.408,17.131,4.356,4.356,0,1,1,0,8.711,4.3,4.3,0,0,1-3.169-1.381,2.9,2.9,0,0,0-4.219,3.986,10.168,10.168,0,1,0,7.408-17.131Z" transform="translate(-428.445 -359.01)" fill="#fff"/>
    <path id="Path_108" data-name="Path 108" d="M150.7,227.6a2.913,2.913,0,0,0-2.917,2.917V253.5a3.15,3.15,0,1,1-6.3,0v-2.2a2.917,2.917,0,0,0-5.833,0v2.2a8.964,8.964,0,0,0,17.928,0V230.517A2.856,2.856,0,0,0,150.7,227.6Z" transform="translate(-334.773 -359.01)" fill="#fff"/>
    <path id="Path_110" data-name="Path 110" d="M66.886,5H7l5.284,59.886,24.659,7.045L61.6,64.886,66.886,5Z" transform="translate(-214.28 -151.91)" fill="none" stroke="#fff" stroke-width="5"/>
  </g>
</svg>
